<mxfile host="app.diagrams.net" modified="2024-02-06T13:35:01.982Z" agent="Mozilla/5.0 (Windows NT 10.0; Win64; x64; rv:109.0) Gecko/20100101 Firefox/115.0" etag="b9JQJPkPOykeJEebozs-" version="23.1.1" type="device">
  <diagram name="Page-1" id="v4X7UW8VbsqZm3jadLEK">
    <mxGraphModel dx="1137" dy="668" grid="0" gridSize="10" guides="0" tooltips="1" connect="0" arrows="0" fold="1" page="1" pageScale="1" pageWidth="827" pageHeight="1169" math="0" shadow="0">
      <root>
        <mxCell id="0" />
        <mxCell id="1" parent="0" />
        <mxCell id="vdLjD4ByO2yvvURPCCTd-47" value="" style="rounded=1;whiteSpace=wrap;html=1;fillColor=#f5f5f5;strokeColor=#666666;fontColor=#333333;dashed=1;" parent="1" vertex="1">
          <mxGeometry x="216" y="17" width="193" height="194" as="geometry" />
        </mxCell>
        <mxCell id="vdLjD4ByO2yvvURPCCTd-42" value="" style="rounded=1;whiteSpace=wrap;html=1;fillColor=#f5f5f5;strokeColor=#666666;fontColor=#333333;dashed=1;" parent="1" vertex="1">
          <mxGeometry x="423" y="382" width="378" height="477" as="geometry" />
        </mxCell>
        <mxCell id="vdLjD4ByO2yvvURPCCTd-1" value="&lt;font style=&quot;font-size: 20px;&quot; face=&quot;Times New Roman&quot;&gt;{&amp;nbsp;&amp;nbsp; ,&amp;nbsp;&amp;nbsp; ,&amp;nbsp;&amp;nbsp; ,&amp;nbsp;&amp;nbsp; ,&amp;nbsp;&amp;nbsp; ,&amp;nbsp;&amp;nbsp; }&lt;/font&gt;" style="text;html=1;align=center;verticalAlign=middle;resizable=0;points=[];autosize=1;strokeColor=none;fillColor=none;" parent="1" vertex="1">
          <mxGeometry x="355" y="258" width="160" height="40" as="geometry" />
        </mxCell>
        <mxCell id="vdLjD4ByO2yvvURPCCTd-2" value="&lt;div&gt;&lt;font style=&quot;font-size: 16px;&quot; face=&quot;Times New Roman&quot; color=&quot;#3333ff&quot;&gt;code&lt;/font&gt;&lt;/div&gt;&lt;div&gt;&lt;font face=&quot;Times New Roman&quot;&gt;CA_DonnÃ©es 2021_Familles d&#39;infractions_CONCUSSION&lt;/font&gt;&lt;/div&gt;&lt;div&gt;&lt;font face=&quot;Times New Roman&quot; color=&quot;#006600&quot;&gt;string&lt;br&gt;&lt;/font&gt;&lt;/div&gt;" style="text;html=1;align=center;verticalAlign=middle;resizable=0;points=[];autosize=1;strokeColor=none;fillColor=none;" parent="1" vertex="1">
          <mxGeometry x="41" y="348" width="310" height="60" as="geometry" />
        </mxCell>
        <mxCell id="vdLjD4ByO2yvvURPCCTd-9" value="&lt;b&gt;&lt;font style=&quot;font-size: 20px;&quot; face=&quot;Times New Roman&quot;&gt;1 ligne de Data.ndjson =&lt;/font&gt;&lt;font style=&quot;font-size: 20px;&quot; face=&quot;Times New Roman&quot;&gt;&lt;br&gt;&lt;/font&gt;&lt;/b&gt;" style="text;html=1;align=center;verticalAlign=middle;resizable=0;points=[];autosize=1;strokeColor=none;fillColor=none;" parent="1" vertex="1">
          <mxGeometry x="141" y="262" width="224" height="36" as="geometry" />
        </mxCell>
        <mxCell id="vdLjD4ByO2yvvURPCCTd-10" value="&lt;div&gt;&lt;font style=&quot;font-size: 16px;&quot; face=&quot;Times New Roman&quot; color=&quot;#3333ff&quot;&gt;nom&lt;/font&gt;&lt;/div&gt;&lt;div&gt;&lt;font face=&quot;Times New Roman&quot;&gt;.&lt;/font&gt;&lt;/div&gt;&lt;div&gt;&lt;font face=&quot;Times New Roman&quot; color=&quot;#006600&quot;&gt;string&lt;br&gt;&lt;/font&gt;&lt;/div&gt;" style="text;html=1;align=center;verticalAlign=middle;resizable=0;points=[];autosize=1;strokeColor=none;fillColor=none;" parent="1" vertex="1">
          <mxGeometry x="171" y="428" width="50" height="60" as="geometry" />
        </mxCell>
        <mxCell id="vdLjD4ByO2yvvURPCCTd-11" value="&lt;div&gt;&lt;font style=&quot;font-size: 16px;&quot; face=&quot;Times New Roman&quot; color=&quot;#3333ff&quot;&gt;unite&lt;/font&gt;&lt;/div&gt;&lt;div&gt;&lt;font face=&quot;Times New Roman&quot;&gt;.&lt;/font&gt;&lt;/div&gt;&lt;div&gt;&lt;font face=&quot;Times New Roman&quot; color=&quot;#006600&quot;&gt;string&lt;br&gt;&lt;/font&gt;&lt;/div&gt;" style="text;html=1;align=center;verticalAlign=middle;resizable=0;points=[];autosize=1;strokeColor=none;fillColor=none;" parent="1" vertex="1">
          <mxGeometry x="166" y="508" width="60" height="60" as="geometry" />
        </mxCell>
        <mxCell id="vdLjD4ByO2yvvURPCCTd-12" value="" style="curved=1;endArrow=classic;html=1;rounded=0;anchorPointDirection=0;arcSize=19;ignoreEdge=0;movable=1;resizable=1;rotatable=1;deletable=1;editable=1;locked=0;connectable=1;exitX=0.188;exitY=0.6;exitDx=0;exitDy=0;exitPerimeter=0;entryX=0.577;entryY=0.3;entryDx=0;entryDy=0;entryPerimeter=0;" parent="1" source="vdLjD4ByO2yvvURPCCTd-1" target="vdLjD4ByO2yvvURPCCTd-2" edge="1">
          <mxGeometry width="50" height="50" relative="1" as="geometry">
            <mxPoint x="421" y="348" as="sourcePoint" />
            <mxPoint x="291" y="458" as="targetPoint" />
            <Array as="points">
              <mxPoint x="382" y="368" />
            </Array>
          </mxGeometry>
        </mxCell>
        <mxCell id="vdLjD4ByO2yvvURPCCTd-14" value="&lt;div style=&quot;&quot;&gt;&lt;font face=&quot;Times New Roman&quot; color=&quot;#006600&quot;&gt;list of one object&lt;/font&gt;&lt;/div&gt;&lt;div&gt;&lt;font style=&quot;font-size: 16px;&quot; face=&quot;Times New Roman&quot; color=&quot;#3333ff&quot;&gt;france&lt;/font&gt;&lt;/div&gt;&lt;div&gt;&lt;font face=&quot;Times New Roman&quot;&gt;[{&amp;nbsp;&amp;nbsp; ,&amp;nbsp;&amp;nbsp; ,&amp;nbsp;&amp;nbsp; ,&amp;nbsp;&amp;nbsp; ,&amp;nbsp;&amp;nbsp; ,&amp;nbsp;&amp;nbsp; ,&amp;nbsp;&amp;nbsp; ,&amp;nbsp;&amp;nbsp; }]&lt;/font&gt;&lt;/div&gt;&lt;div&gt;&lt;font face=&quot;Times New Roman&quot; color=&quot;#006600&quot;&gt;&lt;br&gt;&lt;/font&gt;&lt;/div&gt;" style="text;html=1;align=center;verticalAlign=middle;resizable=0;points=[];autosize=1;strokeColor=none;fillColor=none;" parent="1" vertex="1">
          <mxGeometry x="511" y="388" width="140" height="80" as="geometry" />
        </mxCell>
        <mxCell id="vdLjD4ByO2yvvURPCCTd-15" value="&lt;div&gt;&lt;font style=&quot;font-size: 16px;&quot; face=&quot;Times New Roman&quot; color=&quot;#3333ff&quot;&gt;level&lt;/font&gt;&lt;/div&gt;&lt;div&gt;&lt;font face=&quot;Times New Roman&quot;&gt;nat&lt;/font&gt;&lt;/div&gt;&lt;div&gt;&lt;font face=&quot;Times New Roman&quot; color=&quot;#006600&quot;&gt;string&lt;br&gt;&lt;/font&gt;&lt;/div&gt;" style="text;html=1;align=center;verticalAlign=middle;resizable=0;points=[];autosize=1;strokeColor=none;fillColor=none;" parent="1" vertex="1">
          <mxGeometry x="451" y="478" width="50" height="60" as="geometry" />
        </mxCell>
        <mxCell id="vdLjD4ByO2yvvURPCCTd-16" value="&lt;div&gt;&lt;font style=&quot;font-size: 16px;&quot; face=&quot;Times New Roman&quot; color=&quot;#3333ff&quot;&gt;code_level&lt;/font&gt;&lt;/div&gt;&lt;div&gt;&lt;font face=&quot;Times New Roman&quot;&gt;fra&lt;/font&gt;&lt;/div&gt;&lt;div&gt;&lt;font face=&quot;Times New Roman&quot; color=&quot;#006600&quot;&gt;string&lt;br&gt;&lt;/font&gt;&lt;/div&gt;" style="text;html=1;align=center;verticalAlign=middle;resizable=0;points=[];autosize=1;strokeColor=none;fillColor=none;" parent="1" vertex="1">
          <mxGeometry x="431" y="548" width="90" height="60" as="geometry" />
        </mxCell>
        <mxCell id="vdLjD4ByO2yvvURPCCTd-17" value="&lt;div&gt;&lt;font style=&quot;font-size: 16px;&quot; face=&quot;Times New Roman&quot; color=&quot;#3333ff&quot;&gt;last_value&lt;/font&gt;&lt;/div&gt;&lt;div&gt;&lt;font face=&quot;Times New Roman&quot;&gt;2.0&lt;/font&gt;&lt;/div&gt;&lt;div&gt;&lt;font face=&quot;Times New Roman&quot; color=&quot;#006600&quot;&gt;float&lt;br&gt;&lt;/font&gt;&lt;/div&gt;" style="text;html=1;align=center;verticalAlign=middle;resizable=0;points=[];autosize=1;strokeColor=none;fillColor=none;" parent="1" vertex="1">
          <mxGeometry x="431" y="618" width="90" height="60" as="geometry" />
        </mxCell>
        <mxCell id="vdLjD4ByO2yvvURPCCTd-18" value="&lt;div&gt;&lt;font style=&quot;font-size: 16px;&quot; face=&quot;Times New Roman&quot; color=&quot;#3333ff&quot;&gt;last_date&lt;/font&gt;&lt;/div&gt;&lt;div&gt;&lt;font face=&quot;Times New Roman&quot;&gt;2021-01-01&lt;/font&gt;&lt;/div&gt;&lt;div&gt;&lt;font face=&quot;Times New Roman&quot; color=&quot;#006600&quot;&gt;string&lt;br&gt;&lt;/font&gt;&lt;/div&gt;" style="text;html=1;align=center;verticalAlign=middle;resizable=0;points=[];autosize=1;strokeColor=none;fillColor=none;" parent="1" vertex="1">
          <mxGeometry x="436" y="688" width="80" height="60" as="geometry" />
        </mxCell>
        <mxCell id="vdLjD4ByO2yvvURPCCTd-19" value="&lt;div&gt;&lt;font style=&quot;font-size: 16px;&quot; face=&quot;Times New Roman&quot; color=&quot;#3333ff&quot;&gt;evol&lt;/font&gt;&lt;/div&gt;&lt;div&gt;&lt;font face=&quot;Times New Roman&quot;&gt;0&lt;/font&gt;&lt;/div&gt;&lt;div&gt;&lt;font face=&quot;Times New Roman&quot; color=&quot;#006600&quot;&gt;int&lt;br&gt;&lt;/font&gt;&lt;/div&gt;" style="text;html=1;align=center;verticalAlign=middle;resizable=0;points=[];autosize=1;strokeColor=none;fillColor=none;" parent="1" vertex="1">
          <mxGeometry x="671" y="618" width="50" height="60" as="geometry" />
        </mxCell>
        <mxCell id="vdLjD4ByO2yvvURPCCTd-20" value="&lt;div&gt;&lt;font style=&quot;font-size: 16px;&quot; face=&quot;Times New Roman&quot; color=&quot;#3333ff&quot;&gt;evol_percentage&lt;/font&gt;&lt;/div&gt;&lt;div&gt;&lt;font face=&quot;Times New Roman&quot;&gt;0&lt;/font&gt;&lt;/div&gt;&lt;div&gt;&lt;font face=&quot;Times New Roman&quot; color=&quot;#006600&quot;&gt;int&lt;br&gt;&lt;/font&gt;&lt;/div&gt;" style="text;html=1;align=center;verticalAlign=middle;resizable=0;points=[];autosize=1;strokeColor=none;fillColor=none;" parent="1" vertex="1">
          <mxGeometry x="631" y="548" width="130" height="60" as="geometry" />
        </mxCell>
        <mxCell id="vdLjD4ByO2yvvURPCCTd-21" value="&lt;div&gt;&lt;font style=&quot;font-size: 16px;&quot; face=&quot;Times New Roman&quot; color=&quot;#3333ff&quot;&gt;evol_color&lt;/font&gt;&lt;/div&gt;&lt;div&gt;&lt;font face=&quot;Times New Roman&quot;&gt;red&lt;/font&gt;&lt;/div&gt;&lt;div&gt;&lt;font face=&quot;Times New Roman&quot; color=&quot;#006600&quot;&gt;string&lt;br&gt;&lt;/font&gt;&lt;/div&gt;" style="text;html=1;align=center;verticalAlign=middle;resizable=0;points=[];autosize=1;strokeColor=none;fillColor=none;" parent="1" vertex="1">
          <mxGeometry x="651" y="478" width="90" height="60" as="geometry" />
        </mxCell>
        <mxCell id="vdLjD4ByO2yvvURPCCTd-22" value="&lt;div style=&quot;&quot;&gt;&lt;font face=&quot;Times New Roman&quot; color=&quot;#006600&quot;&gt;list of objects&lt;br&gt;&lt;/font&gt;&lt;/div&gt;&lt;div&gt;&lt;font style=&quot;font-size: 16px;&quot; face=&quot;Times New Roman&quot; color=&quot;#3333ff&quot;&gt;values&lt;/font&gt;&lt;/div&gt;&lt;font face=&quot;Times New Roman&quot;&gt;[{&amp;nbsp;&amp;nbsp; ,&amp;nbsp;&amp;nbsp; }]&lt;/font&gt;" style="text;html=1;align=center;verticalAlign=middle;resizable=0;points=[];autosize=1;strokeColor=none;fillColor=none;" parent="1" vertex="1">
          <mxGeometry x="655" y="688" width="83" height="60" as="geometry" />
        </mxCell>
        <mxCell id="vdLjD4ByO2yvvURPCCTd-23" value="" style="curved=1;endArrow=classic;html=1;rounded=0;anchorPointDirection=0;arcSize=19;ignoreEdge=0;movable=1;resizable=1;rotatable=1;deletable=1;editable=1;locked=0;connectable=1;exitX=0.188;exitY=0.6;exitDx=0;exitDy=0;exitPerimeter=0;entryX=1.032;entryY=0.287;entryDx=0;entryDy=0;entryPerimeter=0;" parent="1" target="vdLjD4ByO2yvvURPCCTd-10" edge="1">
          <mxGeometry width="50" height="50" relative="1" as="geometry">
            <mxPoint x="406" y="282" as="sourcePoint" />
            <mxPoint x="241" y="366" as="targetPoint" />
            <Array as="points">
              <mxPoint x="393" y="442" />
            </Array>
          </mxGeometry>
        </mxCell>
        <mxCell id="vdLjD4ByO2yvvURPCCTd-24" value="" style="curved=1;endArrow=classic;html=1;rounded=0;anchorPointDirection=0;arcSize=19;ignoreEdge=0;movable=1;resizable=1;rotatable=1;deletable=1;editable=1;locked=0;connectable=1;entryX=0.9;entryY=0.3;entryDx=0;entryDy=0;entryPerimeter=0;" parent="1" target="vdLjD4ByO2yvvURPCCTd-11" edge="1">
          <mxGeometry width="50" height="50" relative="1" as="geometry">
            <mxPoint x="426" y="283" as="sourcePoint" />
            <mxPoint x="243" y="443" as="targetPoint" />
            <Array as="points">
              <mxPoint x="410" y="524" />
            </Array>
          </mxGeometry>
        </mxCell>
        <mxCell id="vdLjD4ByO2yvvURPCCTd-25" value="" style="endArrow=classic;html=1;rounded=0;exitX=0.2;exitY=0.65;exitDx=0;exitDy=0;exitPerimeter=0;entryX=0.92;entryY=0.283;entryDx=0;entryDy=0;entryPerimeter=0;" parent="1" source="vdLjD4ByO2yvvURPCCTd-14" target="vdLjD4ByO2yvvURPCCTd-15" edge="1">
          <mxGeometry width="50" height="50" relative="1" as="geometry">
            <mxPoint x="541" y="488" as="sourcePoint" />
            <mxPoint x="571" y="478" as="targetPoint" />
            <Array as="points">
              <mxPoint x="538" y="495" />
            </Array>
          </mxGeometry>
        </mxCell>
        <mxCell id="vdLjD4ByO2yvvURPCCTd-26" value="" style="endArrow=classic;html=1;rounded=0;exitX=0.2;exitY=0.65;exitDx=0;exitDy=0;exitPerimeter=0;entryX=0.944;entryY=0.283;entryDx=0;entryDy=0;entryPerimeter=0;" parent="1" target="vdLjD4ByO2yvvURPCCTd-16" edge="1">
          <mxGeometry width="50" height="50" relative="1" as="geometry">
            <mxPoint x="552" y="440" as="sourcePoint" />
            <mxPoint x="510" y="495" as="targetPoint" />
            <Array as="points">
              <mxPoint x="550" y="564" />
            </Array>
          </mxGeometry>
        </mxCell>
        <mxCell id="vdLjD4ByO2yvvURPCCTd-27" value="" style="endArrow=classic;html=1;rounded=0;exitX=0.2;exitY=0.65;exitDx=0;exitDy=0;exitPerimeter=0;entryX=0.933;entryY=0.3;entryDx=0;entryDy=0;entryPerimeter=0;" parent="1" target="vdLjD4ByO2yvvURPCCTd-17" edge="1">
          <mxGeometry width="50" height="50" relative="1" as="geometry">
            <mxPoint x="564" y="440" as="sourcePoint" />
            <mxPoint x="528" y="565" as="targetPoint" />
            <Array as="points">
              <mxPoint x="561" y="636" />
            </Array>
          </mxGeometry>
        </mxCell>
        <mxCell id="vdLjD4ByO2yvvURPCCTd-28" value="" style="endArrow=classic;html=1;rounded=0;exitX=0.2;exitY=0.65;exitDx=0;exitDy=0;exitPerimeter=0;entryX=0.938;entryY=0.3;entryDx=0;entryDy=0;entryPerimeter=0;" parent="1" target="vdLjD4ByO2yvvURPCCTd-18" edge="1">
          <mxGeometry width="50" height="50" relative="1" as="geometry">
            <mxPoint x="576" y="440" as="sourcePoint" />
            <mxPoint x="527" y="636" as="targetPoint" />
            <Array as="points">
              <mxPoint x="572" y="706" />
            </Array>
          </mxGeometry>
        </mxCell>
        <mxCell id="vdLjD4ByO2yvvURPCCTd-30" value="" style="endArrow=classic;html=1;rounded=0;exitX=0.2;exitY=0.65;exitDx=0;exitDy=0;exitPerimeter=0;entryX=0.12;entryY=0.3;entryDx=0;entryDy=0;entryPerimeter=0;" parent="1" target="vdLjD4ByO2yvvURPCCTd-19" edge="1">
          <mxGeometry width="50" height="50" relative="1" as="geometry">
            <mxPoint x="587" y="440" as="sourcePoint" />
            <mxPoint x="522" y="706" as="targetPoint" />
            <Array as="points">
              <mxPoint x="584" y="637" />
            </Array>
          </mxGeometry>
        </mxCell>
        <mxCell id="vdLjD4ByO2yvvURPCCTd-31" value="" style="endArrow=classic;html=1;rounded=0;exitX=0.2;exitY=0.65;exitDx=0;exitDy=0;exitPerimeter=0;entryX=0.069;entryY=0.3;entryDx=0;entryDy=0;entryPerimeter=0;" parent="1" target="vdLjD4ByO2yvvURPCCTd-20" edge="1">
          <mxGeometry width="50" height="50" relative="1" as="geometry">
            <mxPoint x="599" y="440" as="sourcePoint" />
            <mxPoint x="689" y="636" as="targetPoint" />
            <Array as="points">
              <mxPoint x="597" y="566" />
            </Array>
          </mxGeometry>
        </mxCell>
        <mxCell id="vdLjD4ByO2yvvURPCCTd-32" value="" style="endArrow=classic;html=1;rounded=0;exitX=0.2;exitY=0.65;exitDx=0;exitDy=0;exitPerimeter=0;entryX=0.078;entryY=0.283;entryDx=0;entryDy=0;entryPerimeter=0;" parent="1" target="vdLjD4ByO2yvvURPCCTd-21" edge="1">
          <mxGeometry width="50" height="50" relative="1" as="geometry">
            <mxPoint x="612" y="440" as="sourcePoint" />
            <mxPoint x="653" y="566" as="targetPoint" />
            <Array as="points">
              <mxPoint x="611" y="495" />
            </Array>
          </mxGeometry>
        </mxCell>
        <mxCell id="vdLjD4ByO2yvvURPCCTd-33" value="" style="endArrow=classic;html=1;rounded=0;exitX=0.2;exitY=0.65;exitDx=0;exitDy=0;exitPerimeter=0;" parent="1" edge="1">
          <mxGeometry width="50" height="50" relative="1" as="geometry">
            <mxPoint x="624" y="440" as="sourcePoint" />
            <mxPoint x="725" y="721" as="targetPoint" />
            <Array as="points">
              <mxPoint x="624" y="469" />
              <mxPoint x="783" y="469" />
              <mxPoint x="781" y="721" />
            </Array>
          </mxGeometry>
        </mxCell>
        <mxCell id="vdLjD4ByO2yvvURPCCTd-34" value="" style="curved=1;endArrow=classic;html=1;rounded=0;anchorPointDirection=0;arcSize=19;ignoreEdge=0;movable=1;resizable=1;rotatable=1;deletable=1;editable=1;locked=0;connectable=1;exitX=0.188;exitY=0.6;exitDx=0;exitDy=0;exitPerimeter=0;entryX=0.314;entryY=0.45;entryDx=0;entryDy=0;entryPerimeter=0;" parent="1" target="vdLjD4ByO2yvvURPCCTd-14" edge="1">
          <mxGeometry width="50" height="50" relative="1" as="geometry">
            <mxPoint x="446" y="283" as="sourcePoint" />
            <mxPoint x="281" y="367" as="targetPoint" />
            <Array as="points">
              <mxPoint x="446" y="426" />
            </Array>
          </mxGeometry>
        </mxCell>
        <mxCell id="vdLjD4ByO2yvvURPCCTd-35" value="&lt;div&gt;&lt;font style=&quot;font-size: 16px;&quot; face=&quot;Times New Roman&quot; color=&quot;#3333ff&quot;&gt;date&lt;/font&gt;&lt;/div&gt;&lt;div&gt;&lt;font face=&quot;Times New Roman&quot;&gt;2021-01-01&lt;/font&gt;&lt;/div&gt;&lt;div&gt;&lt;font face=&quot;Times New Roman&quot; color=&quot;#006600&quot;&gt;string&lt;br&gt;&lt;/font&gt;&lt;/div&gt;" style="text;html=1;align=center;verticalAlign=middle;resizable=0;points=[];autosize=1;strokeColor=none;fillColor=none;" parent="1" vertex="1">
          <mxGeometry x="601" y="778" width="80" height="60" as="geometry" />
        </mxCell>
        <mxCell id="vdLjD4ByO2yvvURPCCTd-36" value="&lt;div&gt;&lt;font style=&quot;font-size: 16px;&quot; face=&quot;Times New Roman&quot; color=&quot;#3333ff&quot;&gt;value&lt;/font&gt;&lt;/div&gt;&lt;div&gt;&lt;font face=&quot;Times New Roman&quot;&gt;2.0&lt;/font&gt;&lt;/div&gt;&lt;div&gt;&lt;font face=&quot;Times New Roman&quot; color=&quot;#006600&quot;&gt;float&lt;br&gt;&lt;/font&gt;&lt;/div&gt;" style="text;html=1;align=center;verticalAlign=middle;resizable=0;points=[];autosize=1;strokeColor=none;fillColor=none;" parent="1" vertex="1">
          <mxGeometry x="721" y="778" width="60" height="60" as="geometry" />
        </mxCell>
        <mxCell id="vdLjD4ByO2yvvURPCCTd-37" value="" style="endArrow=classic;html=1;rounded=0;exitX=0.449;exitY=0.817;exitDx=0;exitDy=0;exitPerimeter=0;entryX=0.738;entryY=0.3;entryDx=0;entryDy=0;entryPerimeter=0;" parent="1" source="vdLjD4ByO2yvvURPCCTd-22" target="vdLjD4ByO2yvvURPCCTd-35" edge="1">
          <mxGeometry width="50" height="50" relative="1" as="geometry">
            <mxPoint x="571" y="778" as="sourcePoint" />
            <mxPoint x="621" y="758" as="targetPoint" />
            <Array as="points">
              <mxPoint x="690" y="796" />
            </Array>
          </mxGeometry>
        </mxCell>
        <mxCell id="vdLjD4ByO2yvvURPCCTd-38" value="" style="endArrow=classic;html=1;rounded=0;exitX=0.449;exitY=0.817;exitDx=0;exitDy=0;exitPerimeter=0;entryX=0.167;entryY=0.3;entryDx=0;entryDy=0;entryPerimeter=0;" parent="1" target="vdLjD4ByO2yvvURPCCTd-36" edge="1">
          <mxGeometry width="50" height="50" relative="1" as="geometry">
            <mxPoint x="703" y="737" as="sourcePoint" />
            <mxPoint x="672" y="796" as="targetPoint" />
            <Array as="points">
              <mxPoint x="702" y="796" />
            </Array>
          </mxGeometry>
        </mxCell>
        <mxCell id="vdLjD4ByO2yvvURPCCTd-39" value="" style="curved=1;endArrow=classic;html=1;rounded=0;anchorPointDirection=0;arcSize=19;ignoreEdge=0;movable=1;resizable=1;rotatable=1;deletable=1;editable=1;locked=0;connectable=1;exitX=0.694;exitY=0.65;exitDx=0;exitDy=0;exitPerimeter=0;entryX=0.748;entryY=0.446;entryDx=0;entryDy=0;entryPerimeter=0;" parent="1" source="vdLjD4ByO2yvvURPCCTd-1" target="vdLjD4ByO2yvvURPCCTd-45" edge="1">
          <mxGeometry width="50" height="50" relative="1" as="geometry">
            <mxPoint x="456" y="293" as="sourcePoint" />
            <mxPoint x="361" y="175" as="targetPoint" />
            <Array as="points">
              <mxPoint x="471" y="61" />
            </Array>
          </mxGeometry>
        </mxCell>
        <mxCell id="vdLjD4ByO2yvvURPCCTd-41" value="" style="group" parent="1" vertex="1" connectable="0">
          <mxGeometry x="91" y="618" width="231" height="90" as="geometry" />
        </mxCell>
        <mxCell id="vdLjD4ByO2yvvURPCCTd-7" value="" style="rounded=1;whiteSpace=wrap;html=1;container=0;" parent="vdLjD4ByO2yvvURPCCTd-41" vertex="1">
          <mxGeometry width="231" height="90" as="geometry" />
        </mxCell>
        <mxCell id="vdLjD4ByO2yvvURPCCTd-4" value="&lt;div&gt;&lt;font style=&quot;font-size: 16px;&quot; face=&quot;Times New Roman&quot; color=&quot;#3333ff&quot;&gt;key&lt;br&gt;&lt;/font&gt;&lt;/div&gt;&lt;div&gt;&lt;font face=&quot;Times New Roman&quot;&gt;valeur exemple&lt;br&gt;&lt;/font&gt;&lt;/div&gt;&lt;div&gt;&lt;font face=&quot;Times New Roman&quot; color=&quot;#006600&quot;&gt;type&lt;br&gt;&lt;/font&gt;&lt;/div&gt;" style="text;html=1;align=center;verticalAlign=middle;resizable=0;points=[];autosize=1;strokeColor=none;fillColor=none;container=0;" parent="vdLjD4ByO2yvvURPCCTd-41" vertex="1">
          <mxGeometry x="100" width="100" height="60" as="geometry" />
        </mxCell>
        <mxCell id="vdLjD4ByO2yvvURPCCTd-5" value="&lt;font face=&quot;Times New Roman&quot;&gt;LÃ©gende :&lt;br&gt;&lt;/font&gt;" style="text;html=1;align=center;verticalAlign=middle;resizable=0;points=[];autosize=1;strokeColor=none;fillColor=none;container=0;" parent="vdLjD4ByO2yvvURPCCTd-41" vertex="1">
          <mxGeometry x="30" y="15" width="70" height="30" as="geometry" />
        </mxCell>
        <mxCell id="vdLjD4ByO2yvvURPCCTd-6" value="&lt;font face=&quot;Times New Roman&quot; color=&quot;#666666&quot;&gt;Commentaire : la key est toujours une string&lt;br&gt;&lt;/font&gt;" style="text;html=1;align=center;verticalAlign=middle;resizable=0;points=[];autosize=1;strokeColor=none;fillColor=none;container=0;" parent="vdLjD4ByO2yvvURPCCTd-41" vertex="1">
          <mxGeometry y="62" width="231" height="26" as="geometry" />
        </mxCell>
        <mxCell id="vdLjD4ByO2yvvURPCCTd-44" value="" style="rounded=1;whiteSpace=wrap;html=1;fillColor=#f5f5f5;strokeColor=#666666;fontColor=#333333;dashed=1;" parent="1" vertex="1">
          <mxGeometry x="540" y="20" width="193" height="194" as="geometry" />
        </mxCell>
        <mxCell id="vdLjD4ByO2yvvURPCCTd-45" value="&lt;div style=&quot;&quot;&gt;&lt;font face=&quot;Times New Roman&quot; color=&quot;#006600&quot;&gt;list of one object&lt;/font&gt;&lt;/div&gt;&lt;div&gt;&lt;font style=&quot;font-size: 16px;&quot; face=&quot;Times New Roman&quot; color=&quot;#3333ff&quot;&gt;regions&lt;/font&gt;&lt;/div&gt;&lt;div&gt;&lt;font face=&quot;Times New Roman&quot;&gt;[{&amp;nbsp;&amp;nbsp; ,&amp;nbsp;&amp;nbsp; ,&amp;nbsp;&amp;nbsp; ,&amp;nbsp;&amp;nbsp; ,&amp;nbsp;&amp;nbsp; ,&amp;nbsp;&amp;nbsp; ,&amp;nbsp;&amp;nbsp; ,&amp;nbsp;&amp;nbsp; }]&lt;/font&gt;&lt;/div&gt;&lt;div&gt;&lt;font face=&quot;Times New Roman&quot; color=&quot;#006600&quot;&gt;&lt;br&gt;&lt;/font&gt;&lt;/div&gt;" style="text;html=1;align=center;verticalAlign=middle;resizable=0;points=[];autosize=1;strokeColor=none;fillColor=none;" parent="1" vertex="1">
          <mxGeometry x="246" y="28" width="131" height="74" as="geometry" />
        </mxCell>
        <mxCell id="vdLjD4ByO2yvvURPCCTd-46" value="&lt;div style=&quot;&quot;&gt;&lt;font face=&quot;Times New Roman&quot; color=&quot;#006600&quot;&gt;list of one object&lt;/font&gt;&lt;/div&gt;&lt;div&gt;&lt;font style=&quot;font-size: 16px;&quot; face=&quot;Times New Roman&quot; color=&quot;#3333ff&quot;&gt;departements&lt;/font&gt;&lt;/div&gt;&lt;div&gt;&lt;font face=&quot;Times New Roman&quot;&gt;[{&amp;nbsp;&amp;nbsp; ,&amp;nbsp;&amp;nbsp; ,&amp;nbsp;&amp;nbsp; ,&amp;nbsp;&amp;nbsp; ,&amp;nbsp;&amp;nbsp; ,&amp;nbsp;&amp;nbsp; ,&amp;nbsp;&amp;nbsp; ,&amp;nbsp;&amp;nbsp; }]&lt;/font&gt;&lt;/div&gt;&lt;div&gt;&lt;font face=&quot;Times New Roman&quot; color=&quot;#006600&quot;&gt;&lt;br&gt;&lt;/font&gt;&lt;/div&gt;" style="text;html=1;align=center;verticalAlign=middle;resizable=0;points=[];autosize=1;strokeColor=none;fillColor=none;" parent="1" vertex="1">
          <mxGeometry x="570" y="32" width="131" height="74" as="geometry" />
        </mxCell>
        <mxCell id="vdLjD4ByO2yvvURPCCTd-40" value="" style="curved=1;endArrow=classic;html=1;rounded=0;anchorPointDirection=0;arcSize=19;ignoreEdge=0;movable=1;resizable=1;rotatable=1;deletable=1;editable=1;locked=0;connectable=1;exitX=0.694;exitY=0.65;exitDx=0;exitDy=0;exitPerimeter=0;entryX=0.137;entryY=0.432;entryDx=0;entryDy=0;entryPerimeter=0;" parent="1" target="vdLjD4ByO2yvvURPCCTd-46" edge="1">
          <mxGeometry width="50" height="50" relative="1" as="geometry">
            <mxPoint x="487" y="283" as="sourcePoint" />
            <mxPoint x="580" y="182" as="targetPoint" />
            <Array as="points">
              <mxPoint x="483" y="67" />
            </Array>
          </mxGeometry>
        </mxCell>
        <mxCell id="vdLjD4ByO2yvvURPCCTd-48" value="&lt;div&gt;&lt;font face=&quot;Times New Roman&quot; color=&quot;#666666&quot;&gt;Idem que &lt;/font&gt;&lt;font face=&quot;Times New Roman&quot; color=&quot;#3333ff&quot;&gt;regions &lt;/font&gt;&lt;font face=&quot;Times New Roman&quot; color=&quot;#666666&quot;&gt;mais&lt;/font&gt;&lt;/div&gt;&lt;div&gt;&lt;font face=&quot;Times New Roman&quot; color=&quot;#666666&quot;&gt;level=&quot;reg&quot;&lt;/font&gt;&lt;/div&gt;&lt;div&gt;&lt;font face=&quot;Times New Roman&quot; color=&quot;#666666&quot;&gt;code_level=0&lt;br&gt;&lt;/font&gt;&lt;/div&gt;" style="text;html=1;align=center;verticalAlign=middle;resizable=0;points=[];autosize=1;strokeColor=none;fillColor=none;" parent="1" vertex="1">
          <mxGeometry x="574" y="120" width="127" height="55" as="geometry" />
        </mxCell>
        <mxCell id="vdLjD4ByO2yvvURPCCTd-49" value="&lt;div&gt;&lt;font face=&quot;Times New Roman&quot; color=&quot;#666666&quot;&gt;Idem que &lt;/font&gt;&lt;font face=&quot;Times New Roman&quot; color=&quot;#3333ff&quot;&gt;france &lt;/font&gt;&lt;font face=&quot;Times New Roman&quot; color=&quot;#666666&quot;&gt;mais&lt;/font&gt;&lt;/div&gt;&lt;div&gt;&lt;font face=&quot;Times New Roman&quot; color=&quot;#666666&quot;&gt;level=&quot;reg&quot;&lt;/font&gt;&lt;/div&gt;&lt;div&gt;&lt;font face=&quot;Times New Roman&quot; color=&quot;#666666&quot;&gt;code_level=0&lt;br&gt;&lt;/font&gt;&lt;/div&gt;" style="text;html=1;align=center;verticalAlign=middle;resizable=0;points=[];autosize=1;strokeColor=none;fillColor=none;" parent="1" vertex="1">
          <mxGeometry x="250" y="119" width="122" height="55" as="geometry" />
        </mxCell>
        <mxCell id="vdLjD4ByO2yvvURPCCTd-50" value="&lt;div&gt;&lt;font face=&quot;Times New Roman&quot; color=&quot;#666666&quot;&gt;En gÃ©nÃ©ral les &lt;/font&gt;&lt;font face=&quot;Times New Roman&quot; color=&quot;#3333ff&quot;&gt;values &lt;/font&gt;&lt;font face=&quot;Times New Roman&quot; color=&quot;#666666&quot;&gt;contiennent 1 seul objet = {date,value}&lt;/font&gt;&lt;/div&gt;&lt;div&gt;&lt;font face=&quot;Times New Roman&quot; color=&quot;#666666&quot;&gt;mais parfois j&#39;en ai vu plusieurs (pas pour nos graphiques a priori)&lt;br&gt;&lt;/font&gt;&lt;/div&gt;" style="text;html=1;align=center;verticalAlign=middle;resizable=0;points=[];autosize=1;strokeColor=none;fillColor=none;" parent="1" vertex="1">
          <mxGeometry x="48" y="760" width="335" height="41" as="geometry" />
        </mxCell>
        <mxCell id="eU5wT4smFn2tpvuojZw0-2" value="" style="endArrow=classic;html=1;rounded=0;exitX=0.169;exitY=0.55;exitDx=0;exitDy=0;exitPerimeter=0;entryX=1.007;entryY=0.506;entryDx=0;entryDy=0;entryPerimeter=0;dashed=1;dashPattern=1 2;strokeColor=#B3B3B3;" edge="1" parent="1" source="vdLjD4ByO2yvvURPCCTd-22" target="vdLjD4ByO2yvvURPCCTd-50">
          <mxGeometry width="50" height="50" relative="1" as="geometry">
            <mxPoint x="438" y="746" as="sourcePoint" />
            <mxPoint x="488" y="696" as="targetPoint" />
          </mxGeometry>
        </mxCell>
      </root>
    </mxGraphModel>
  </diagram>
</mxfile>
